<?xml version="1.0" encoding="iso-8859-1"?>
<!-- Uploaded to: SVG Repo, www.svgrepo.com, Generator: SVG Repo Mixer Tools -->
<svg height="800px" width="800px" version="1.1" id="Layer_1" xmlns="http://www.w3.org/2000/svg" xmlns:xlink="http://www.w3.org/1999/xlink" 
	 viewBox="0 0 512 512" xml:space="preserve">
<path style="fill:#F2484B;" d="M342.068,31.279l25.035,25.033c1.602,1.604,2.467,3.8,2.387,6.064
	c-0.081,2.265-1.097,4.396-2.807,5.881l-110.456,95.92l24.613,24.613c3.192,3.191,3.192,8.364,0.001,11.554
	c-1.596,1.596-3.687,2.393-5.778,2.393s-4.182-0.797-5.777-2.392l-29.407-29.407c-15.148-4.78-30.898-7.21-46.851-7.21
	c-38.726,0-75.286,14.087-103.829,39.831l98.059,98.059c0.01,0.01,23.109,23.109,23.109,23.109
	c0.012,0.012,98.068,98.07,98.068,98.07c36.901-40.916,49.331-97.767,32.605-150.697l-48.645-48.645
	c-3.191-3.192-3.191-8.364,0-11.555c3.192-3.19,8.364-3.19,11.555,0l43.87,43.87l90.927-104.705l-60.09-60.089
	c-3.191-3.192-3.191-8.364,0-11.555c3.192-3.19,8.364-3.19,11.555,0l65.475,65.475l25.033,25.035l11.554-11.554L353.622,19.725
	L342.068,31.279z"/>
<polygon style="fill:#98D9D5;" points="181.486,318.959 26.867,473.581 21.089,490.911 38.419,485.133 193.041,330.514 "/>
<path style="fill:#082947;" d="M509.607,152.6L359.399,2.394c-3.194-3.192-8.366-3.19-11.555,0l-23.109,23.109
	c-3.191,3.192-3.191,8.364,0,11.555L349.35,61.67l-107.008,92.927c-15.983-4.783-32.55-7.205-49.313-7.205
	c-45.825,0-88.907,17.846-121.309,50.247c-3.191,3.192-3.191,8.364,0,11.555l98.211,98.211L13.947,463.389
	c-0.897,0.898-1.572,1.99-1.974,3.194L0.419,501.245c-0.978,2.936-0.215,6.173,1.974,8.362c1.557,1.557,3.645,2.392,5.778,2.392
	c0.864,0,1.736-0.137,2.583-0.419l34.662-11.554c1.203-0.401,2.295-1.076,3.194-1.974l155.984-155.983l98.211,98.211
	c1.596,1.595,3.686,2.392,5.778,2.392c2.09,0,4.182-0.797,5.778-2.392c22.883-22.883,38.766-51.578,45.933-82.982
	c6.621-29.017,5.611-59.215-2.891-87.64L450.33,162.65l24.613,24.614c3.192,3.19,8.364,3.187,11.555,0l23.109-23.109
	C512.797,160.964,512.797,155.792,509.607,152.6z M480.721,169.933l-25.033-25.035l-65.475-65.475c-3.192-3.19-8.364-3.19-11.555,0
	c-3.191,3.192-3.191,8.364,0,11.555l60.09,60.089l-90.927,104.705l-43.87-43.87c-3.192-3.19-8.364-3.19-11.555,0
	c-3.191,3.192-3.191,8.364,0,11.555l48.645,48.645c16.726,52.93,4.296,109.78-32.604,150.697l-98.057-98.058
	c-0.012-0.012-23.111-23.111-23.111-23.111c-0.01-0.01-98.068-98.069-98.068-98.069c28.542-25.746,65.103-39.831,103.829-39.831
	c15.954,0,31.703,2.43,46.851,7.21l29.407,29.407c1.595,1.595,3.686,2.392,5.777,2.392c2.09,0,4.182-0.797,5.778-2.393
	c3.191-3.191,3.191-8.364-0.001-11.554l-24.613-24.613l110.456-95.92c1.71-1.486,2.728-3.617,2.807-5.881
	c0.08-2.265-0.785-4.462-2.387-6.064l-25.035-25.033l11.554-11.554L492.278,158.38L480.721,169.933z M21.089,490.911l5.778-17.331
	l154.62-154.622l11.554,11.554L38.419,485.133L21.089,490.911z"/>
</svg>